<svg id="Capa_1" enable-background="new 0 0 512 512" height="512" viewBox="0 0 512 512" width="512" xmlns="http://www.w3.org/2000/svg"><g><g><path d="m114.625 504.5c-14.981 0-27.125-12.144-27.125-27.125v-72.875h54.25v72.875c0 14.981-12.144 27.125-27.125 27.125z" fill="#fda0c1"/></g><g><path d="m397.375 504.5c-14.981 0-27.125-12.144-27.125-27.125v-72.875h54.25v72.875c0 14.981-12.144 27.125-27.125 27.125z" fill="#fda0c1"/></g><g><path d="m47.5 404.5c0-69.036 93.349-125 208.5-125s208.5 55.964 208.5 125z" fill="#dceefe"/></g><g><path d="m256 364.5c-23.472 0-42.5-19.028-42.5-42.5s19.028-42.5 42.5-42.5c-115.151 0-208.5 55.964-208.5 125h208.5z" fill="#c4e2fe"/></g><g><path d="m444.5 414.5c-11.046 0-20-8.954-20-20v-337c0-11.046 8.954-20 20-20 11.046 0 20 8.954 20 20v337c0 11.046-8.954 20-20 20z" fill="#fda0c1"/></g><g><path d="m444.5 246c-11.046 0-20-8.954-20-20v168.5c0 11.046 8.954 20 20 20 11.046 0 20-8.954 20-20v-168.5c0 11.046-8.954 20-20 20z" fill="#fc90b4"/></g><g><path d="m67.5 414.5c-11.046 0-20-8.954-20-20v-337c0-11.046 8.954-20 20-20 11.046 0 20 8.954 20 20v337c0 11.046-8.954 20-20 20z" fill="#fda0c1"/></g><g><path d="m67.5 246c-11.046 0-20-8.954-20-20v168.5c0 11.046 8.954 20 20 20 11.046 0 20-8.954 20-20v-168.5c0 11.046-8.954 20-20 20z" fill="#fc90b4"/></g><g><path d="m161.75 414.5c-11.046 0-20-8.954-20-20v-337c0-11.046 8.954-20 20-20 11.046 0 20 8.954 20 20v337c0 11.046-8.954 20-20 20z" fill="#fda0c1"/></g><g><path d="m161.75 246c-11.046 0-20-8.954-20-20v168.5c0 11.046 8.954 20 20 20 11.046 0 20-8.954 20-20v-168.5c0 11.046-8.954 20-20 20z" fill="#fc90b4"/></g><g><path d="m256 414.5c-11.046 0-20-8.954-20-20v-337c0-11.046 8.954-20 20-20 11.046 0 20 8.954 20 20v337c0 11.046-8.954 20-20 20z" fill="#fda0c1"/></g><g><path d="m256 246c-11.046 0-20-8.954-20-20v168.5c0 11.046 8.954 20 20 20 11.046 0 20-8.954 20-20v-168.5c0 11.046-8.954 20-20 20z" fill="#fc90b4"/></g><g><path d="m350.25 414.5c-11.046 0-20-8.954-20-20v-337c0-11.046 8.954-20 20-20 11.046 0 20 8.954 20 20v337c0 11.046-8.954 20-20 20z" fill="#fda0c1"/></g><g><path d="m350.25 246c-11.046 0-20-8.954-20-20v168.5c0 11.046 8.954 20 20 20 11.046 0 20-8.954 20-20v-168.5c0 11.046-8.954 20-20 20z" fill="#fc90b4"/></g><g><path d="m464.5 87.5h-417c-22.091 0-40-17.909-40-40 0-22.091 17.909-40 40-40h417c22.091 0 40 17.909 40 40 0 22.091-17.909 40-40 40z" fill="#fdb3cd"/></g><g><g><path d="m206 56.944c-4.142 0-7.5-3.358-7.5-7.5v-9.608c0-4.142 3.358-7.5 7.5-7.5s7.5 3.358 7.5 7.5v9.608c0 4.142-3.358 7.5-7.5 7.5z"/></g><g><path d="m306 56.944c-4.143 0-7.5-3.358-7.5-7.5v-9.608c0-4.142 3.357-7.5 7.5-7.5s7.5 3.358 7.5 7.5v9.608c0 4.142-3.357 7.5-7.5 7.5z"/></g><g><path d="m256 62.664c-7.22 0-14.085-3.126-18.836-8.578-2.721-3.123-2.396-7.86.727-10.582 3.123-2.721 7.86-2.396 10.582.727 1.901 2.182 4.645 3.433 7.528 3.433s5.627-1.251 7.529-3.434c2.721-3.123 7.458-3.448 10.582-.725 3.122 2.722 3.446 7.459.725 10.582-4.753 5.451-11.618 8.577-18.837 8.577z"/></g></g><g><path d="m101.75 47.5c0-22.091 17.909-40 40-40h-94.25c-22.091 0-40 17.909-40 40 0 22.091 17.909 40 40 40h94.25c-22.091 0-40-17.909-40-40z" fill="#fda0c1"/></g><g><path d="m464.5 444.5h-417c-22.091 0-40-17.909-40-40 0-22.091 17.909-40 40-40h417c22.091 0 40 17.909 40 40 0 22.091-17.909 40-40 40z" fill="#fdb3cd"/></g><g><path d="m101.75 404.5c0-22.091 17.909-40 40-40h-94.25c-22.091 0-40 17.909-40 40 0 22.091 17.909 40 40 40h94.25c-22.091 0-40-17.909-40-40z" fill="#fda0c1"/></g><path d="m472 357.598v-263.196c22.64-3.607 40-23.263 40-46.902 0-26.191-21.309-47.5-47.5-47.5h-417c-26.191 0-47.5 21.309-47.5 47.5 0 23.639 17.36 43.295 40 46.902v263.195c-22.64 3.608-40 23.264-40 46.903 0 26.191 21.309 47.5 47.5 47.5h32.5v25.375c0 19.092 15.533 34.625 34.625 34.625s34.625-15.533 34.625-34.625v-25.375h164.968c4.143 0 7.5-3.358 7.5-7.5s-3.357-7.5-7.5-7.5h-266.718c-17.92 0-32.5-14.58-32.5-32.5s14.58-32.5 32.5-32.5h417c17.921 0 32.5 14.58 32.5 32.5s-14.579 32.5-32.5 32.5h-120.282c-4.143 0-7.5 3.358-7.5 7.5s3.357 7.5 7.5 7.5h18.532v25.375c0 19.092 15.532 34.625 34.625 34.625s34.625-15.533 34.625-34.625v-25.375h32.5c26.191 0 47.5-21.309 47.5-47.5 0-23.639-17.36-43.295-40-46.902zm-337.75 119.777c0 10.821-8.804 19.625-19.625 19.625s-19.625-8.804-19.625-19.625v-25.375h39.25zm-54.25-382.375v262h-25v-262zm15 239.468c11.242-8.804 24.407-16.599 39.25-23.255v45.787h-39.25zm46.75-131.801c-4.142 0-7.5 3.358-7.5 7.5v84.707c-14.479 6.033-27.626 13.068-39.25 21.015v-220.889h39.25v85.167c0 4.142 3.358 7.5 7.5 7.5s7.5-3.358 7.5-7.5v-85.167h25v262h-25v-146.833c0-4.143-3.358-7.5-7.5-7.5zm86.75 70.395c-13.348 1.032-26.494 2.827-39.25 5.346v-183.408h39.25zm-39.25 20.649c12.717-2.641 25.869-4.524 39.25-5.606v68.895h-39.25zm54.25-198.711h25v262h-25zm79.25 183.408c-12.756-2.519-25.902-4.314-39.25-5.346v-178.062h39.25zm-39.25 9.697c13.381 1.082 26.533 2.965 39.25 5.606v63.289h-39.25zm54.25-193.105h25v262h-25zm79.25 220.889c-11.627-7.949-24.765-14.989-39.25-21.022v-199.867h39.25zm-39.25-4.675c14.842 6.654 28.005 14.443 39.25 23.25v22.536h-39.25zm54.25-216.214h25v262h-25zm-417-47.5c0-17.92 14.58-32.5 32.5-32.5h417c17.921 0 32.5 14.58 32.5 32.5s-14.579 32.5-32.5 32.5h-417c-17.92 0-32.5-14.58-32.5-32.5zm402 429.875c0 10.821-8.804 19.625-19.625 19.625s-19.625-8.804-19.625-19.625v-25.375h39.25z"/></g></svg>