<svg id="Capa_1" enable-background="new 0 0 512 512" height="512" viewBox="0 0 512 512" width="512" xmlns="http://www.w3.org/2000/svg"><g><g><path d="m296 72.5h188.5c11.046 0 20 8.954 20 20 0 55.228-44.771 100-100 100h-108.5z" fill="#ffcd6e"/></g><g><path d="m296 192.5h108.5c20.59 0 39.724-6.226 55.629-16.893.509-5.327.803-10.689.86-16.076.323-30.669-6.651-60.327-20.109-87.031h-144.88z" fill="#f8b55e"/></g><g><path d="m383.505 256.709c23.005-26.067 37.093-60.191 37.487-97.599.87-82.698-66.212-151.024-148.913-151.606-83.338-.587-151.079 66.794-151.079 149.996 0 32.435 10.296 62.463 27.796 87h-13.289c-30.162 0-58.503-14.432-76.244-38.825-7.39-10.163-19.197-16.175-31.763-16.175-11.046 0-20 8.954-20 20v165c0 71.797 58.203 130 130 130h153.5c71.797 0 130-58.203 130-130 0-35.216-14.006-67.158-36.748-90.568-7.306-7.52-7.685-19.362-.747-27.223z" fill="#ffdf8e"/></g><g><g><g><ellipse cx="339.847" cy="114.824" fill="#fda0c1" rx="29.387" ry="23.403"/></g></g><g><path d="m344.759 94.385c-4.142 0-7.5-3.357-7.5-7.5v-12c0-4.143 3.358-7.5 7.5-7.5s7.5 3.357 7.5 7.5v12c0 4.142-3.358 7.5-7.5 7.5z"/></g></g><g><g><path d="m384.802 464.5c-62.851 0-113.802-50.951-113.802-113.802 0-22.466-15.125-42.261-36.905-47.772-34.927-8.837-64.973-29.926-85.299-58.426h-13.289c-30.162 0-58.503-14.432-76.244-38.825-7.39-10.163-19.197-16.175-31.763-16.175-11.046 0-20 8.954-20 20v165c0 71.797 58.203 130 130 130h153.5c36.866 0 70.144-15.348 93.802-40z" fill="#ffcd6e"/></g></g><g><path d="m256.144 284.5c-32.841.001-61.573 17.591-77.289 43.863-16.944 28.326-47.06 46.137-80.067 46.137h-1.189c-6.741 0-11.495 6.517-9.555 12.972 5.569 18.529 22.759 32.028 43.102 32.028 0 24.853 20.147 45 45 45h78.861c49.584 0 90.706-39.623 91.136-89.205.432-50.026-40.072-90.796-89.999-90.795z" fill="#fff2b4"/></g><g><path d="m484.5 65h-86.185c-29.046-39.987-75.526-64.639-126.183-64.996-.382-.003-.759-.004-1.141-.004-41.867 0-81.238 16.218-110.966 45.738-30.002 29.791-46.525 69.483-46.525 111.762 0 28.239 7.396 55.452 21.503 79.498-27.485-.16-53.499-13.493-69.674-35.734-8.773-12.063-22.914-19.264-37.829-19.264-15.164 0-27.5 12.337-27.5 27.5v165c0 75.817 61.682 137.5 137.5 137.5h153.5c75.818 0 137.5-61.683 137.5-137.5 0-35.974-13.804-69.994-38.869-95.793-4.565-4.7-4.786-12.183-.504-17.035 16.168-18.319 27.719-40.025 33.973-63.297 24.047-4.203 46.046-16.542 62.261-35.037 17.179-19.594 26.639-44.752 26.639-70.838 0-15.163-12.336-27.5-27.5-27.5zm-57.978 117.347c1.217-7.622 1.887-15.359 1.969-23.157.108-10.325-.801-20.673-2.704-30.756-.769-4.07-4.689-6.752-8.761-5.979-4.07.769-6.748 4.69-5.979 8.761 1.721 9.117 2.543 18.476 2.445 27.816-.359 34.176-13.006 67.103-35.611 92.715-9.436 10.693-9 27.127.992 37.413 22.33 22.983 34.627 53.292 34.627 85.341 0 67.547-54.953 122.5-122.5 122.5h-153.5c-67.547-.001-122.5-54.954-122.5-122.501v-165c0-6.893 5.607-12.5 12.5-12.5 10.131 0 19.738 4.892 25.698 13.086 19.087 26.245 49.857 41.914 82.309 41.914h13.289c2.809 0 5.381-1.569 6.667-4.065 1.286-2.497 1.069-5.503-.562-7.789-17.271-24.219-26.401-52.797-26.401-82.646 0-38.252 14.949-74.164 42.094-101.118 26.899-26.71 62.516-41.382 100.4-41.382.343 0 .689.001 1.033.004 57.026.401 108.231 34.836 130.45 87.726 1.604 3.818 6 5.612 9.819 4.01 3.819-1.604 5.614-6.001 4.01-9.82-2.459-5.854-5.254-11.492-8.33-16.919h76.524c6.893 0 12.5 5.607 12.5 12.5 0 42.757-29.717 79.861-70.478 89.846z"/><path d="m256.144 277c-34.113.001-66.195 18.207-83.726 47.513-15.914 26.604-43.439 42.487-73.63 42.487h-1.189c-5.58 0-10.688 2.566-14.015 7.04-3.354 4.51-4.346 10.192-2.723 15.592 5.93 19.73 23.172 34.126 43.252 36.887 3.441 25.641 25.464 45.481 52.033 45.481h5.005c4.142 0 7.5-3.357 7.5-7.5s-3.358-7.5-7.5-7.5h-5.005c-20.678 0-37.5-16.822-37.5-37.5 0-4.143-3.358-7.5-7.5-7.5-16.426 0-31.197-10.974-35.919-26.687-.334-1.11.104-1.932.395-2.322.336-.452.952-.991 1.978-.991h1.189c34.987 0 68.133-19.077 86.503-49.786 14.838-24.804 41.987-40.213 70.854-40.214 22.151 0 42.953 8.678 58.575 24.435 15.619 15.755 24.115 36.635 23.924 58.795-.394 45.088-37.913 81.77-83.639 81.77h-43.855c-4.142 0-7.5 3.357-7.5 7.5s3.358 7.5 7.5 7.5h43.855c53.926 0 98.174-43.353 98.636-96.641.227-26.19-9.813-50.868-28.271-69.485-18.46-18.62-43.045-28.875-69.227-28.874z"/></g></g></svg>