<svg id="Capa_1" enable-background="new 0 0 512 512" height="512" viewBox="0 0 512 512" width="512" xmlns="http://www.w3.org/2000/svg"><g><g><path d="m7.5 94.281c0 11.046 8.954 20 20 20h11.621c11.046 0 20 8.954 20 20v74.787h40v-74.787c0-33.137-26.863-60-60-60h-11.621c-11.046 0-20 8.954-20 20z" fill="#f7f0eb"/></g><g><path d="m79.121 160.894c-11.046 0-20-8.954-20-20v68.173h40v-68.173c0 11.046-8.954 20-20 20z" fill="#efe2dd"/></g><g><path d="m256 209.068h227.619c.572-6.592.881-13.26.881-20 0-63.099-25.576-120.224-66.926-161.574l-161.574 161.574z" fill="#72bafd"/></g><g><path d="m264.284 209.068 167.432-167.432c7.81-7.81 7.81-20.474 0-28.284-7.81-7.81-20.474-7.81-28.284 0l-195.716 195.716z" fill="#9ccefd"/></g><g><path d="m94.069 454.494 167.431-167.432c7.81-7.81 7.81-20.474 0-28.284-7.81-7.81-20.474-7.81-28.284 0l-195.716 195.716z" fill="#efe2dd"/></g><g><path d="m417.931 454.494-167.431-167.432c-7.81-7.81-7.81-20.474 0-28.284 7.81-7.81 20.474-7.81 28.284 0l195.716 195.716z" fill="#efe2dd"/></g><g><path d="m207.716 209.068h56.569l108.062-108.062c-7.81 7.81-20.474 7.81-28.284 0s-7.811-20.474 0-28.284z" fill="#72bafd"/></g><g><path d="m256 397.568c-104.888 0-196.551-70.811-223.038-172.299l-4.228-16.201h454.532l-4.228 16.201c-26.487 101.488-118.15 172.299-223.038 172.299z" fill="#9ccefd"/></g><g><path d="m256 279.66v-70.593h-227.266l4.228 16.201c26.487 101.489 118.15 172.3 223.038 172.3-32.559 0-58.954-26.394-58.954-58.954 0-32.559 26.395-58.954 58.954-58.954z" fill="#72bafd"/></g><g><path d="m28.734 209.068v90c0 20.919 16.958 37.878 37.878 37.878 20.919 0 37.878-16.958 37.878-37.878 0 20.919 16.958 37.878 37.878 37.878 20.919 0 37.878-16.958 37.878-37.878 0 20.919 16.958 37.878 37.878 37.878 20.919 0 37.878-16.958 37.878-37.878 0 20.919 16.958 37.878 37.878 37.878 20.919 0 37.878-16.958 37.878-37.878 0 20.919 16.958 37.878 37.878 37.878 20.919 0 37.878-16.958 37.878-37.878 0 20.919 16.958 37.878 37.878 37.878 20.919 0 37.878-16.958 37.878-37.878v-90z" fill="#dceefe"/></g><g><g><path d="m142.984 299.068v-90h-114.25v90c0 20.919 16.958 37.878 37.878 37.878 20.919 0 37.878-16.958 37.878-37.878 0 20.919 16.958 37.878 37.878 37.878 7.029 0 13.606-1.921 19.247-5.257-11.15-6.594-18.631-18.731-18.631-32.621z" fill="#c4e2fe"/></g></g><g><g><path d="m206 273.512c-4.142 0-7.5-3.358-7.5-7.5v-9.608c0-4.142 3.358-7.5 7.5-7.5s7.5 3.358 7.5 7.5v9.608c0 4.142-3.358 7.5-7.5 7.5z"/></g><g><path d="m306 273.512c-4.142 0-7.5-3.358-7.5-7.5v-9.608c0-4.142 3.358-7.5 7.5-7.5s7.5 3.358 7.5 7.5v9.608c0 4.142-3.358 7.5-7.5 7.5z"/></g><g><path d="m256 279.231c-7.22 0-14.086-3.127-18.836-8.579-2.721-3.123-2.396-7.86.727-10.582s7.86-2.396 10.582.727c1.901 2.182 4.645 3.433 7.528 3.433s5.626-1.251 7.528-3.433c2.72-3.124 7.458-3.449 10.582-.727 3.123 2.721 3.448 7.458.727 10.582-4.752 5.452-11.618 8.579-18.838 8.579z"/></g></g><g><path d="m484.5 229.068h-457c-11.046 0-20-8.954-20-20 0-11.046 8.954-20 20-20h457c11.046 0 20 8.954 20 20 0 11.045-8.954 20-20 20z" fill="#9ccefd"/></g><g><path d="m107.5 209.068c0-11.046 8.954-20 20-20h-100c-11.046 0-20 8.954-20 20s8.954 20 20 20h100c-11.046 0-20-8.955-20-20z" fill="#72bafd"/></g><g><circle cx="57.5" cy="454.494" fill="#9ccefd" r="50"/></g><g><path d="m57.5 404.494c-27.614 0-50 22.386-50 50s22.386 50 50 50c-8.284 0-15-6.716-15-15s6.716-15 15-15v-40c-8.284 0-15-6.716-15-15s6.716-15 15-15z" fill="#72bafd"/></g><g><circle cx="454.5" cy="454.494" fill="#9ccefd" r="50"/></g><g><path d="m454.5 404.494c-27.614 0-50 22.386-50 50s22.386 50 50 50c-8.284 0-15-6.716-15-15s6.716-15 15-15v-40c-8.284 0-15-6.716-15-15s6.716-15 15-15z" fill="#72bafd"/></g><g><path d="m454.5 474.494h-397c-11.046 0-20-8.954-20-20 0-11.046 8.954-20 20-20h397c11.046 0 20 8.954 20 20 0 11.045-8.954 20-20 20z" fill="#f7f0eb"/></g><g><path d="m137.5 454.494c0-11.046 8.954-20 20-20h-100c-11.046 0-20 8.954-20 20s8.954 20 20 20h100c-11.046 0-20-8.955-20-20z" fill="#efe2dd"/></g><path d="m454.5 396.994c-7.802 0-15.379 1.606-22.34 4.554l-39.565-39.565c10.319-7.236 20.07-15.308 29.206-24.18 6.879 4.205 14.951 6.643 23.587 6.643 25.021 0 45.378-20.356 45.378-45.378v-63.229c12.153-2.845 21.234-13.764 21.234-26.772 0-12.6-8.521-23.241-20.101-26.481-1.393-50.937-19.453-100.498-51.125-140.337 6.764-10.632 5.517-24.93-3.755-34.202-10.722-10.723-28.169-10.723-38.891 0l-173.37 173.37c-.048.048-.088.1-.135.149h-118.002v-47.287c0-37.22-30.28-67.5-67.5-67.5h-11.621c-15.164 0-27.5 12.336-27.5 27.5s12.336 27.5 27.5 27.5h11.621c6.893 0 12.5 5.607 12.5 12.5v47.287h-24.121c-15.164 0-27.5 12.336-27.5 27.5 0 13.008 9.081 23.927 21.234 26.771v63.229c0 25.021 20.356 45.378 45.378 45.378 8.634 0 16.704-2.437 23.582-6.64 9.135 8.872 18.891 16.938 29.213 24.175l-39.567 39.568c-6.96-2.948-14.538-4.554-22.34-4.554-31.706 0-57.5 25.794-57.5 57.5s25.794 57.5 57.5 57.5c21.294 0 40.409-11.431 50.503-30h296.001c10.008 18.321 29.487 30 50.497 30 31.706 0 57.5-25.794 57.5-57.5s-25.795-57.499-57.501-57.499zm-35.665 12.441c-5.999 4.737-11.079 10.678-14.835 17.559h-2.962l-44.298-44.298c7.925-3.701 15.613-7.805 23.034-12.321zm-361.335 57.559c-6.893 0-12.5-5.607-12.5-12.5s5.607-12.5 12.5-12.5h233.5c4.142 0 7.5-3.358 7.5-7.5s-3.358-7.5-7.5-7.5h-158.825l37.951-37.951c27.418 10.628 56.267 16.025 85.874 16.025 29.604 0 58.456-5.394 85.876-16.023l37.949 37.949h-58.825c-4.142 0-7.5 3.358-7.5 7.5s3.358 7.5 7.5 7.5h133.5c6.893 0 12.5 5.607 12.5 12.5s-5.607 12.5-12.5 12.5zm44.069-139.046c1.038-1.254 2.02-2.555 2.92-3.916 8.127 12.291 22.071 20.414 37.878 20.414 15.806 0 29.75-8.123 37.877-20.414 8.127 12.291 22.071 20.414 37.878 20.414 15.806 0 29.75-8.123 37.877-20.414 8.127 12.291 22.071 20.414 37.878 20.414 15.806 0 29.75-8.123 37.877-20.414 8.127 12.291 22.071 20.414 37.877 20.414 15.807 0 29.75-8.123 37.878-20.414.9 1.36 1.882 2.66 2.918 3.913-41.751 40.098-96.387 62.122-154.429 62.122-58.076 0-112.683-22.016-154.429-62.119zm307.166-309.293c4.874-4.874 12.804-4.874 17.678 0s4.874 12.804 0 17.678l-36.483 36.484c-2.929 2.929-2.929 7.678 0 10.606 2.929 2.929 7.678 2.929 10.606 0l29.964-29.964c28.454 36.603 44.797 81.706 46.37 128.109h-174.479l76.931-76.932c2.929-2.929 2.929-7.678 0-10.606-2.929-2.929-7.678-2.929-10.606 0l-87.538 87.538h-35.356zm-369.614 88.126h-11.621c-6.893 0-12.5-5.607-12.5-12.5s5.607-12.5 12.5-12.5h11.621c28.949 0 52.5 23.551 52.5 52.5v47.287h-25v-47.287c0-15.164-12.336-27.5-27.5-27.5zm-24.121 102.286c0-6.893 5.607-12.5 12.5-12.5h457c6.893 0 12.5 5.607 12.5 12.5s-5.607 12.5-12.5 12.5h-457c-6.893 0-12.5-5.607-12.5-12.5zm21.234 90v-62.5h439.532v62.5c0 16.75-13.627 30.378-30.378 30.378-16.75 0-30.377-13.627-30.377-30.378 0-4.142-3.358-7.5-7.5-7.5s-7.5 3.358-7.5 7.5c0 16.75-13.627 30.378-30.378 30.378-16.75 0-30.377-13.627-30.377-30.378 0-4.142-3.358-7.5-7.5-7.5s-7.5 3.358-7.5 7.5c0 16.75-13.627 30.378-30.378 30.378-16.75 0-30.377-13.627-30.377-30.378 0-4.142-3.358-7.5-7.5-7.5s-7.5 3.358-7.5 7.5c0 16.75-13.627 30.378-30.378 30.378-16.75 0-30.377-13.627-30.377-30.378 0-4.142-3.358-7.5-7.5-7.5s-7.5 3.358-7.5 7.5c0 16.75-13.627 30.378-30.377 30.378s-30.378-13.627-30.378-30.378c0-4.142-3.358-7.5-7.5-7.5s-7.5 3.358-7.5 7.5c0 16.75-13.627 30.378-30.377 30.378-16.753 0-30.38-13.627-30.38-30.378zm95.988 71.311c7.422 4.516 15.112 8.615 23.039 12.316l-44.299 44.299h-2.962c-3.756-6.88-8.837-12.822-14.835-17.559zm-74.722 126.616c-23.435 0-42.5-19.065-42.5-42.5s19.065-42.5 42.5-42.5c12.598 0 24.398 5.66 32.369 15h-32.369c-15.164 0-27.5 12.336-27.5 27.5s12.336 27.5 27.5 27.5h32.41c-7.951 9.424-19.644 15-32.41 15zm397 0c-12.567 0-24.38-5.667-32.358-15h32.358c15.164 0 27.5-12.336 27.5-27.5s-12.336-27.5-27.5-27.5h-32.37c7.971-9.34 19.771-15 32.37-15 23.435 0 42.5 19.065 42.5 42.5s-19.065 42.5-42.5 42.5z"/></g></svg>